<?xml version="1.0" encoding="UTF-8"?>
<svg version="1.1" xmlns="http://www.w3.org/2000/svg" width="76" height="43">
<path d="M0 0 C25.08 0 50.16 0 76 0 C76 14.19 76 28.38 76 43 C50.92 43 25.84 43 0 43 C0 28.81 0 14.62 0 0 Z " fill="#FCFCFC" transform="translate(0,0)"/>
<path d="M0 0 C3.47930198 -0.55696336 6.54667307 -0.78859555 10 0 C12.11231538 2.19355828 13.41884459 4.34712585 14.84375 7.03125 C15.2253125 7.6809375 15.606875 8.330625 16 9 C16.66 9 17.32 9 18 9 C18.66 7.88625 19.32 6.7725 20 5.625 C20.37125 4.99851562 20.7425 4.37203125 21.125 3.7265625 C22.15068348 2.02527333 22.15068348 2.02527333 22 0 C25.96 0 29.92 0 34 0 C37.875 6.625 37.875 6.625 39 10 C42.70567584 6.53851526 42.70567584 6.53851526 45.1875 2.1875 C47 0 47 0 49.40625 -0.3125 C51.95603948 -0.3125 54.45983577 -0.21446039 57 0 C55.20891633 5.24057814 52.03842713 8.92817115 48.58203125 13.18359375 C46.75365505 15.89641858 46.75365505 15.89641858 47.01171875 18.9921875 C48.1602241 22.48763856 49.73871233 24.79224418 52 27.6875 C55.91327064 32.73981191 55.91327064 32.73981191 57 36 C53.52097526 36.55691898 50.45392902 36.78357793 47 36 C44.88577513 33.84297705 43.58479309 31.72000809 42.15625 29.06640625 C41.17100625 26.85126614 41.17100625 26.85126614 39 26 C38.690625 26.78375 38.38125 27.5675 38.0625 28.375 C37 31 37 31 36 33 C35.34 33 34.68 33 34 33 C34.33 33.99 34.66 34.98 35 36 C30.71 36 26.42 36 22 36 C21.67 34.68 21.34 33.36 21 32 C19.17120944 28.33466399 19.17120944 28.33466399 16 26 C15.7525 26.721875 15.505 27.44375 15.25 28.1875 C13.76558261 31.52743913 12.77664407 33.57043644 10 36 C6.62724584 36.42424581 3.38053914 36.29031348 0 36 C2.85277908 30.75088649 6.10090245 26.12314791 9.8046875 21.4296875 C11.27601743 19.07163992 11.27601743 19.07163992 10.484375 16.58203125 C8.34398265 12.85887509 5.75623994 9.56447152 3.1015625 6.19726562 C0 2.1944374 0 2.1944374 0 0 Z " fill="#C1C5C9" transform="translate(9,4)"/>
<path d="M0 0 C3.47930198 -0.55696336 6.54667307 -0.78859555 10 0 C12.11231538 2.19355828 13.41884459 4.34712585 14.84375 7.03125 C15.2253125 7.6809375 15.606875 8.330625 16 9 C16.66 9 17.32 9 18 9 C19.6446674 6.53673288 19.6446674 6.53673288 21 4 C24.42447685 5.14149228 25.3358761 5.84692313 27 9 C26.2244064 11.74983184 25.02613391 13.9536717 23.625 16.4375 C23.41875 17.283125 23.2125 18.12875 23 19 C23.66 19.99 24.32 20.98 25 22 C27 25 27 25 26.5 27.75 C24.86415475 30.20376788 23.73561771 30.99694017 21 32 C20.319375 30.7934375 20.319375 30.7934375 19.625 29.5625 C18.25274335 26.91143428 18.25274335 26.91143428 16 26 C15.7525 26.721875 15.505 27.44375 15.25 28.1875 C13.76558261 31.52743913 12.77664407 33.57043644 10 36 C6.62724584 36.42424581 3.38053914 36.29031348 0 36 C2.85277908 30.75088649 6.10090245 26.12314791 9.8046875 21.4296875 C11.27601743 19.07163992 11.27601743 19.07163992 10.484375 16.58203125 C8.34398265 12.85887509 5.75623994 9.56447152 3.1015625 6.19726562 C0 2.1944374 0 2.1944374 0 0 Z " fill="#1C204B" transform="translate(9,4)"/>
<path d="M0 0 C3.96 0 7.92 0 12 0 C12.33 1.32 12.66 2.64 13 4 C11.0625 6.75 11.0625 6.75 9 9 C9.433125 10.0828125 9.433125 10.0828125 9.875 11.1875 C10.24625 12.115625 10.6175 13.04375 11 14 C11.45375 14.804375 11.9075 15.60875 12.375 16.4375 C12.58125 17.283125 12.7875 18.12875 13 19 C11.66666667 21 10.33333333 23 9 25 C9.74618128 28.56508832 11.26854734 30.64101816 14 33 C13.34 33 12.68 33 12 33 C12.33 33.99 12.66 34.98 13 36 C8.71 36 4.42 36 0 36 C1 31 1 31 2.6875 29 C3.120625 28.34 3.55375 27.68 4 27 C3.2244064 24.25016816 2.02613391 22.0463283 0.625 19.5625 C0 17 0 17 1.875 13.6875 C2.926875 12.3571875 2.926875 12.3571875 4 11 C3.566875 10.1646875 3.566875 10.1646875 3.125 9.3125 C0 2.88888889 0 2.88888889 0 0 Z " fill="#F2F2F3" transform="translate(31,4)"/>
<path d="M0 0 C3.96 0 7.92 0 12 0 C10.22157001 4.44607497 9.35585467 5.9797308 6 9 C4.99406757 7.8803014 3.9954151 6.7540588 3 5.625 C2.443125 4.99851562 1.88625 4.37203125 1.3125 3.7265625 C0 2 0 2 0 0 Z " fill="#333661" transform="translate(31,4)"/>
<path d="M0 0 C3.12613393 2.96160056 5.04783565 5.09567131 7 9 C2.71 9 -1.58 9 -6 9 C-4.02 6.03 -2.04 3.06 0 0 Z " fill="#A3A8AB" transform="translate(37,31)"/>
</svg>
